<svg version="1.1" id="Layer_1" xmlns="http://www.w3.org/2000/svg" xmlns:xlink="http://www.w3.org/1999/xlink" x="0px" y="0px"
	 width="100%" viewBox="0 0 500 500" enable-background="new 0 0 500 500" xml:space="preserve">
<path fill="#864C32" opacity="1.000000" stroke="none" 
	d="
M231.000000,501.000000 
	C154.000015,501.000000 77.500038,501.000000 1.000041,501.000000 
	C1.000027,334.333405 1.000027,167.666779 1.000014,1.000131 
	C167.666565,1.000087 334.333130,1.000087 500.999756,1.000044 
	C500.999847,167.666519 500.999847,334.333038 500.999939,500.999786 
	C411.166656,501.000000 321.333344,501.000000 231.000000,501.000000 
M287.796753,347.510529 
	C299.794281,347.507629 311.793488,347.626556 323.788788,347.461243 
	C332.549225,347.340515 334.983704,344.720062 334.986816,335.913361 
	C335.007324,277.924225 335.006805,219.935120 334.989868,161.945999 
	C334.987183,152.850937 332.499268,150.257904 323.500183,150.188797 
	C311.003265,150.092834 298.504761,150.110580 286.007507,150.180893 
	C276.646088,150.233566 274.117676,152.790558 274.101349,162.055679 
	C274.071381,179.052444 274.098602,196.049301 274.077362,213.046082 
	C274.075623,214.423080 273.884308,215.799866 273.750702,217.581802 
	C272.907806,216.867035 272.495667,216.598312 272.184052,216.241730 
	C255.850815,197.549362 239.392273,178.963806 223.272186,160.089233 
	C217.545685,153.384232 210.895660,149.854645 202.041519,150.113556 
	C194.049820,150.347244 186.045090,150.090729 178.047684,150.184677 
	C169.089233,150.289902 166.726883,152.608429 166.722107,161.451279 
	C166.690628,219.607010 166.689819,277.762787 166.721100,335.918549 
	C166.726044,345.096893 169.012115,347.392914 178.298279,347.477814 
	C190.461655,347.589020 202.627014,347.551178 214.791122,347.494232 
	C225.150726,347.445770 227.292206,345.252502 227.300461,334.783691 
	C227.321640,307.955383 227.308228,281.127075 227.308624,254.298782 
	C227.308655,252.541977 227.308640,250.785172 227.308640,248.204803 
	C228.598938,249.208801 229.159882,249.504822 229.533218,249.956070 
	C243.971893,267.407623 258.429016,284.844330 272.740967,302.399384 
	C273.748016,303.634674 274.009827,305.752930 274.033325,307.468597 
	C274.156586,316.465240 274.082428,325.464417 274.093781,334.462738 
	C274.107269,345.174438 276.062836,347.162659 287.796753,347.510529 
M133.053604,210.734985 
	C131.263184,211.013123 129.422104,211.110992 127.690300,211.597672 
	C112.797493,215.782867 97.911034,219.992157 83.055344,224.306717 
	C79.553658,225.323730 76.084915,226.564087 72.759842,228.055756 
	C66.403404,230.907303 63.008739,235.910278 62.881054,242.957245 
	C62.796543,247.621552 62.867615,252.289185 62.748283,256.952240 
	C62.511826,266.192139 66.958511,272.369080 75.549675,275.000763 
	C93.676575,280.553619 111.928932,285.698578 130.149078,290.943939 
	C133.695999,291.965118 135.629059,290.389679 135.674530,286.713501 
	C135.738403,281.547852 135.526138,276.372559 135.767670,271.217133 
	C135.986649,266.543182 133.939117,264.360199 129.466324,263.256958 
	C117.839684,260.389221 106.285812,257.217163 94.754562,253.982407 
	C93.070763,253.510071 91.669571,252.030273 90.137611,251.016647 
	C91.613297,249.969193 92.946594,248.421112 94.587448,247.954453 
	C106.426758,244.587158 118.290260,241.286285 130.231461,238.306396 
	C134.241150,237.305786 135.789307,235.203445 135.730011,231.315430 
	C135.651215,226.150177 135.859177,220.975800 135.618759,215.820526 
	C135.542175,214.178452 134.429092,212.584702 133.053604,210.734985 
M414.634674,277.092285 
	C417.150513,276.235352 419.705841,275.478363 422.174774,274.502716 
	C429.400848,271.647156 433.386353,266.336761 433.641083,258.522644 
	C433.809143,253.366562 433.811676,248.194229 433.614685,243.039612 
	C433.323761,235.426651 429.396149,230.202271 422.366760,227.447372 
	C418.661621,225.995300 414.831573,224.835770 411.006470,223.720657 
	C396.639038,219.532227 382.259796,215.383438 367.865082,211.289856 
	C362.215302,209.683197 360.890656,210.689148 360.829224,216.434662 
	C360.773956,221.598816 360.898315,226.765610 360.795624,231.928299 
	C360.724792,235.490356 362.234192,237.293121 365.768890,238.194092 
	C377.853455,241.274384 389.888031,244.559204 401.883453,247.970673 
	C403.464233,248.420227 404.707550,250.056168 406.107178,251.142639 
	C404.726501,252.091278 403.471649,253.491150 401.945190,253.916718 
	C390.411957,257.132019 378.866394,260.324646 367.235229,263.156891 
	C362.580200,264.290405 360.336182,266.364044 360.740570,271.381866 
	C361.100708,275.851166 360.788757,280.372681 360.822266,284.870758 
	C360.870300,291.319000 361.982330,292.153656 368.305237,290.353821 
	C383.498230,286.029053 398.678802,281.660461 414.634674,277.092285 
z"/>
<path fill="#FFFEFE" opacity="1.000000" stroke="none" 
	d="
M287.336426,347.510284 
	C276.062836,347.162659 274.107269,345.174438 274.093781,334.462738 
	C274.082428,325.464417 274.156586,316.465240 274.033325,307.468597 
	C274.009827,305.752930 273.748016,303.634674 272.740967,302.399384 
	C258.429016,284.844330 243.971893,267.407623 229.533218,249.956070 
	C229.159882,249.504822 228.598938,249.208801 227.308640,248.204803 
	C227.308640,250.785172 227.308655,252.541977 227.308624,254.298782 
	C227.308228,281.127075 227.321640,307.955383 227.300461,334.783691 
	C227.292206,345.252502 225.150726,347.445770 214.791122,347.494232 
	C202.627014,347.551178 190.461655,347.589020 178.298279,347.477814 
	C169.012115,347.392914 166.726044,345.096893 166.721100,335.918549 
	C166.689819,277.762787 166.690628,219.607010 166.722107,161.451279 
	C166.726883,152.608429 169.089233,150.289902 178.047684,150.184677 
	C186.045090,150.090729 194.049820,150.347244 202.041519,150.113556 
	C210.895660,149.854645 217.545685,153.384232 223.272186,160.089233 
	C239.392273,178.963806 255.850815,197.549362 272.184052,216.241730 
	C272.495667,216.598312 272.907806,216.867035 273.750702,217.581802 
	C273.884308,215.799866 274.075623,214.423080 274.077362,213.046082 
	C274.098602,196.049301 274.071381,179.052444 274.101349,162.055679 
	C274.117676,152.790558 276.646088,150.233566 286.007507,150.180893 
	C298.504761,150.110580 311.003265,150.092834 323.500183,150.188797 
	C332.499268,150.257904 334.987183,152.850937 334.989868,161.945999 
	C335.006805,219.935120 335.007324,277.924225 334.986816,335.913361 
	C334.983704,344.720062 332.549225,347.340515 323.788788,347.461243 
	C311.793488,347.626556 299.794281,347.507629 287.336426,347.510284 
z"/>
<path fill="#FDFDFC" opacity="1.000000" stroke="none" 
	d="
M133.421951,210.851913 
	C134.429092,212.584702 135.542175,214.178452 135.618759,215.820526 
	C135.859177,220.975800 135.651215,226.150177 135.730011,231.315430 
	C135.789307,235.203445 134.241150,237.305786 130.231461,238.306396 
	C118.290260,241.286285 106.426758,244.587158 94.587448,247.954453 
	C92.946594,248.421112 91.613297,249.969193 90.137619,251.016647 
	C91.669571,252.030273 93.070763,253.510071 94.754562,253.982407 
	C106.285812,257.217163 117.839684,260.389221 129.466324,263.256958 
	C133.939117,264.360199 135.986649,266.543182 135.767670,271.217133 
	C135.526138,276.372559 135.738403,281.547852 135.674530,286.713501 
	C135.629059,290.389679 133.695999,291.965118 130.149078,290.943939 
	C111.928932,285.698578 93.676575,280.553619 75.549675,275.000763 
	C66.958511,272.369080 62.511826,266.192139 62.748283,256.952240 
	C62.867615,252.289185 62.796543,247.621552 62.881054,242.957245 
	C63.008739,235.910278 66.403404,230.907303 72.759842,228.055756 
	C76.084915,226.564087 79.553658,225.323730 83.055344,224.306717 
	C97.911034,219.992157 112.797493,215.782867 127.690300,211.597672 
	C129.422104,211.110992 131.263184,211.013123 133.421951,210.851913 
z"/>
<path fill="#FEFDFD" opacity="1.000000" stroke="none" 
	d="
M414.249512,277.200928 
	C398.678802,281.660461 383.498230,286.029053 368.305237,290.353821 
	C361.982330,292.153656 360.870300,291.319000 360.822266,284.870758 
	C360.788757,280.372681 361.100708,275.851166 360.740570,271.381866 
	C360.336182,266.364044 362.580200,264.290405 367.235229,263.156891 
	C378.866394,260.324646 390.411957,257.132019 401.945190,253.916718 
	C403.471649,253.491150 404.726501,252.091278 406.107178,251.142639 
	C404.707550,250.056168 403.464233,248.420227 401.883453,247.970673 
	C389.888031,244.559204 377.853455,241.274384 365.768890,238.194092 
	C362.234192,237.293121 360.724792,235.490356 360.795624,231.928299 
	C360.898315,226.765610 360.773956,221.598816 360.829224,216.434662 
	C360.890656,210.689148 362.215302,209.683197 367.865082,211.289856 
	C382.259796,215.383438 396.639038,219.532227 411.006470,223.720657 
	C414.831573,224.835770 418.661621,225.995300 422.366760,227.447372 
	C429.396149,230.202271 433.323761,235.426651 433.614685,243.039612 
	C433.811676,248.194229 433.809143,253.366562 433.641083,258.522644 
	C433.386353,266.336761 429.400848,271.647156 422.174774,274.502716 
	C419.705841,275.478363 417.150513,276.235352 414.249512,277.200928 
z"/>
</svg>